# xmcd CD database file
#
# Track frame offsets:
#	150
#	19467
#	40307
#	59270
#	79352
#	93132
#	114762
#	140122
#	157432
#	176985
#	197182
#	219652
#	246090
#
# Disc length: 3598 seconds
#
# Revision: 2
# Processed by: cddbd v1.5.2PL0 Copyright (c) Steve Scherf et al.
# Submitted via: CDex 1.70beta2
#
DISCID=c40e0c0d
DTITLE=Various Artist - Smooth Moods 1
DYEAR=1998
DGENRE=Jazz
TTITLE0=Grover Washington - Soulful Strut
TTITLE1=Marc Antoine - Sunland
TTITLE2=Dianne Reeves - Smile
TTITLE3=Michael 'Patches' Stewart - Fields of Gold
TTITLE4=Jim Brickman/Dave Koz - Partners in Crime
TTITLE5=Tuck and Patti - Time After Time
TTITLE6=Gato Barbieri - Straight into the Sunrise
TTITLE7=Greg Adams - Smooth Operator
TTITLE8=Phil Perry - One Heart One Love
TTITLE9=Philip Saisse - Film Noir
TTITLE10=Antonio Carlos Jobim - Dindi
TTITLE11=Antonio Forcione and Sabine Sciubba - Visions
TTITLE12=John Kpiaye - Reg Gold and Blues
EXTD=YEAR: 1998
EXTT0=
EXTT1=
EXTT2=
EXTT3=
EXTT4=
EXTT5=
EXTT6=
EXTT7=
EXTT8=
EXTT9=
EXTT10=
EXTT11=
EXTT12=
PLAYORDER=
